<?xml version="1.0" encoding="UTF-8"?>
<svg xmlns="http://www.w3.org/2000/svg" width="512" height="512" viewBox="0 0 512 512" fill="none">
  <path d="M278.5 512H233.5C216.958 512 203.5 498.542 203.5 482C203.5 468.047 213.075 456.288 226 452.949V440.503C226 437.658 223.933 435.193 221.084 434.639C197.131 429.984 174.701 420.694 154.417 407.027C151.989 405.389 148.766 405.663 146.752 407.675L137.874 416.552C144.066 427.33 143.284 441.216 135.142 450.937C129.728 457.4 121.816 461.318 113.432 461.687C105.049 462.048 96.828 458.865 90.892 452.93L59.071 421.11C53.405 415.444 50.285 407.911 50.285 399.897C50.285 391.883 53.405 384.349 59.071 378.683C64.738 373.017 72.271 369.897 80.285 369.897C85.734 369.897 90.962 371.339 95.53 374.044L104.326 365.248C106.339 363.236 106.611 360.012 104.974 357.583C91.307 337.299 82.017 314.869 77.362 290.917C76.808 288.067 74.342 286 71.498 286H59.063C57.705 291.317 54.895 296.166 50.832 300.088C44.92 305.794 37.144 308.759 28.915 308.482C12.701 307.904 0 294.524 0 278.021V233.5C0 225.297 3.248 217.638 9.146 211.934C15.044 206.232 22.827 203.243 31.02 203.518C44.286 203.96 55.498 213.465 58.924 226H71.497C74.342 226 76.808 223.933 77.361 221.084C82.016 197.131 91.306 174.701 104.973 154.417C106.61 151.988 106.337 148.764 104.325 146.752L95.529 137.956C90.961 140.661 85.733 142.103 80.284 142.103C72.27 142.103 64.737 138.983 59.07 133.317C47.373 121.62 47.373 102.587 59.07 90.889L90.89 59.07C102.587 47.372 121.619 47.374 133.317 59.07C138.983 64.737 142.103 72.27 142.103 80.284C142.103 85.732 140.661 90.96 137.956 95.529L146.752 104.325C148.766 106.339 151.988 106.61 154.416 104.973C174.701 91.306 197.131 82.016 221.083 77.361C223.933 76.807 226 74.341 226 71.497V59.051C213.075 55.712 203.5 43.953 203.5 30C203.5 13.458 216.958 0 233.5 0H278.5C295.042 0 308.5 13.458 308.5 30C308.5 43.953 298.925 55.712 286 59.051V71.497C286 74.342 288.067 76.808 290.916 77.361C314.869 82.016 337.299 91.306 357.583 104.973C360.011 106.61 363.235 106.338 365.248 104.325L374.052 95.522C367.273 84.019 368.818 68.935 378.683 59.07C390.379 47.374 409.412 47.372 421.11 59.07L452.93 90.889C464.627 102.586 464.627 121.619 452.93 133.317C447.263 138.983 439.73 142.103 431.716 142.103C426.268 142.103 421.04 140.661 416.471 137.956L407.675 146.752C405.662 148.764 405.39 151.988 407.027 154.417C420.694 174.701 429.984 197.131 434.639 221.083C435.193 223.933 437.659 226 440.503 226H453.055C456.298 213.999 466.671 204.734 479.303 203.619H479.304C487.704 202.87 496.067 205.703 502.256 211.37C508.448 217.04 512 225.106 512 233.5V278.5C512 286.894 508.448 294.96 502.256 300.63C496.067 306.297 487.694 309.121 479.304 308.381C466.671 307.266 456.298 298.001 453.055 286H440.503C437.658 286 435.193 288.067 434.639 290.916C429.984 314.869 420.694 337.299 407.027 357.583C405.39 360.012 405.663 363.236 407.675 365.248L416.471 374.044C421.04 371.339 426.268 369.897 431.716 369.897C439.73 369.897 447.263 373.017 452.93 378.683C458.596 384.349 461.716 391.883 461.716 399.897C461.716 407.911 458.596 415.444 452.929 421.11L421.11 452.93C415.174 458.866 406.963 462.058 398.569 461.687C390.185 461.318 382.273 457.4 376.859 450.938C368.717 441.216 367.933 427.331 374.127 416.552L365.249 407.675C363.236 405.662 360.013 405.389 357.585 407.027C337.3 420.694 314.87 429.984 290.918 434.639C288.068 435.193 286.001 437.659 286.001 440.503V452.949C298.926 456.288 308.501 468.047 308.501 482C308.5 498.542 295.042 512 278.5 512V512ZM150.96 385.97C156.032 385.97 161.139 387.439 165.594 390.441C183.64 402.6 203.594 410.866 224.9 415.006C237.125 417.381 246 428.104 246 440.503V459.5C246 466.393 240.393 472 233.5 472C227.986 472 223.5 476.486 223.5 482C223.5 487.514 227.986 492 233.5 492H278.5C284.014 492 288.5 487.514 288.5 482C288.5 476.486 284.014 472 278.5 472C271.607 472 266 466.393 266 459.5V440.503C266 428.105 274.875 417.381 287.102 415.006C308.407 410.865 328.361 402.6 346.408 390.441C356.755 383.469 370.627 384.768 379.391 393.533L393.146 407.288C397.843 411.985 397.843 419.629 393.146 424.326C389.335 428.137 388.916 434.184 392.191 438.096C394.038 440.299 396.616 441.582 399.45 441.707C402.303 441.825 404.961 440.796 406.969 438.788L438.788 406.968C440.678 405.079 441.717 402.569 441.717 399.898C441.717 397.226 440.677 394.715 438.788 392.827C434.889 388.928 428.544 388.93 424.646 392.827L424.326 393.147C419.63 397.844 411.986 397.845 407.288 393.147L393.533 379.392C384.769 370.628 383.469 356.756 390.441 346.409C402.6 328.362 410.866 308.408 415.006 287.102C417.381 274.875 428.104 266 440.503 266H459.951C466.594 266 472 271.405 472 278.049C472 283.438 475.98 288.01 481.062 288.459C483.924 288.709 486.657 287.795 488.748 285.879C490.845 283.96 491.999 281.339 491.999 278.5V233.5C491.999 230.661 490.845 228.04 488.748 226.121C486.655 224.203 483.911 223.286 481.062 223.541C475.98 223.99 472 228.562 472 233.951C472 240.594 466.595 246 459.951 246H440.503C428.105 246 417.381 237.125 415.006 224.898C410.865 203.593 402.6 183.639 390.441 165.592C383.468 155.244 384.769 141.372 393.533 132.609L406.968 119.174C411.843 114.3 419.772 114.301 424.647 119.174C428.545 123.072 434.89 123.074 438.789 119.174C442.688 115.275 442.688 108.931 438.789 105.031L406.969 73.212C403.073 69.315 396.728 69.311 392.827 73.212C388.928 77.11 388.928 83.455 392.827 87.354C397.701 92.228 397.701 100.159 392.827 105.033L379.392 118.468C370.627 127.232 356.756 128.532 346.408 121.56C328.362 109.401 308.408 101.135 287.102 96.995C274.875 94.619 266 83.896 266 71.497V52.5C266 45.607 271.607 40 278.5 40C284.014 40 288.5 35.514 288.5 30C288.5 24.486 284.014 20 278.5 20H233.5C227.986 20 223.5 24.486 223.5 30C223.5 35.514 227.986 40 233.5 40C240.393 40 246 45.607 246 52.5V71.497C246 83.895 237.125 94.619 224.898 96.994C203.593 101.135 183.639 109.4 165.592 121.559C155.245 128.531 141.373 127.232 132.609 118.467L119.174 105.032C116.814 102.671 115.513 99.532 115.513 96.193C115.513 92.852 116.815 89.712 119.178 87.351C123.074 83.455 123.074 77.11 119.174 73.211C115.275 69.31 108.93 69.312 105.032 73.211L73.212 105.03C69.313 108.929 69.313 115.273 73.212 119.173C75.101 121.062 77.612 122.102 80.283 122.102C82.954 122.102 85.465 121.063 87.353 119.174C92.226 114.299 100.157 114.3 105.032 119.173L118.467 132.608C127.231 141.372 128.531 155.244 121.559 165.591C109.4 183.638 101.134 203.592 96.994 224.898C94.619 237.125 83.896 246 71.497 246H51.976C45.372 246 40 240.628 40 234.024C40 228.402 35.672 223.683 30.353 223.506C27.616 223.405 25.014 224.408 23.05 226.311C21.083 228.212 20 230.766 20 233.5V278.021C20 283.607 24.318 288.305 29.626 288.494C32.381 288.595 34.973 287.599 36.942 285.698C38.914 283.795 40 281.238 40 278.5C40 271.607 45.607 266 52.5 266H71.497C83.895 266 94.619 274.875 96.994 287.102C101.135 308.407 109.4 328.361 121.559 346.408C128.532 356.756 127.231 370.628 118.467 379.391L104.712 393.146C100.015 397.844 92.371 397.843 87.674 393.146L87.354 392.826C85.465 390.936 82.955 389.897 80.284 389.897C77.613 389.897 75.101 390.937 73.213 392.826C71.324 394.715 70.284 397.225 70.284 399.897C70.284 402.568 71.323 405.079 73.212 406.967L105.033 438.787C107.041 440.794 109.717 441.832 112.551 441.706C115.385 441.581 117.963 440.298 119.81 438.094C123.085 434.184 122.666 428.136 118.856 424.325C114.158 419.628 114.158 411.984 118.855 407.287L132.61 393.532C137.601 388.541 144.25 385.97 150.96 385.97V385.97Z" fill="#FFA318"></path>
  <path d="M217.375 213.878C194.216 213.878 175.375 195.037 175.375 171.878C175.375 148.719 194.216 129.878 217.375 129.878C240.534 129.878 259.375 148.719 259.375 171.878C259.375 195.037 240.534 213.878 217.375 213.878V213.878ZM217.375 149.878C205.244 149.878 195.375 159.747 195.375 171.878C195.375 184.009 205.244 193.878 217.375 193.878C229.506 193.878 239.375 184.009 239.375 171.878C239.375 159.747 229.506 149.878 217.375 149.878Z" fill="#FFA318"></path>
  <path d="M189.001 355.805C168.967 355.805 152.668 339.506 152.668 319.472C152.668 299.438 168.967 283.138 189.001 283.138C209.035 283.138 225.334 299.438 225.334 319.472C225.334 339.506 209.035 355.805 189.001 355.805V355.805ZM189.001 303.138C179.995 303.138 172.668 310.465 172.668 319.472C172.668 328.478 179.995 335.805 189.001 335.805C198.007 335.805 205.334 328.478 205.334 319.472C205.334 310.465 198.007 303.138 189.001 303.138V303.138Z" fill="#FFA318"></path>
  <path d="M325.833 345.855C294.493 345.855 268.123 322.41 264.494 291.32C263.853 285.835 267.782 280.869 273.267 280.228C278.754 279.592 283.718 283.515 284.359 289.002C286.811 310.012 304.641 325.855 325.833 325.855C348.858 325.855 367.592 307.122 367.592 284.096C367.592 262.77 351.636 244.926 330.477 242.591C324.988 241.986 321.028 237.044 321.634 231.555C322.24 226.065 327.187 222.117 332.67 222.712C363.981 226.167 387.592 252.557 387.592 284.096C387.592 318.15 359.887 345.855 325.833 345.855V345.855Z" fill="#FFA318"></path>
  <path d="M313 181.88C310.37 181.88 307.79 180.81 305.93 178.95C304.07 177.09 303 174.51 303 171.88C303 169.24 304.069 166.67 305.93 164.81C307.79 162.951 310.37 161.88 313 161.88C315.63 161.88 318.21 162.95 320.069 164.81C321.929 166.67 323 169.25 323 171.88C323 174.51 321.93 177.09 320.069 178.95C318.21 180.81 315.63 181.88 313 181.88Z" fill="#FFA318"></path>
  <path d="M256 385C253.37 385 250.79 383.93 248.93 382.069C247.07 380.21 246 377.63 246 375C246 372.37 247.069 369.79 248.93 367.93C250.79 366.07 253.36 365 256 365C258.63 365 261.21 366.069 263.069 367.93C264.929 369.79 266 372.37 266 375C266 377.63 264.93 380.21 263.069 382.069C261.21 383.93 258.63 385 256 385Z" fill="#FFA318"></path>
  <path d="M143.672 266.13C141.032 266.13 138.462 265.06 136.602 263.2C134.732 261.34 133.672 258.76 133.672 256.13C133.672 253.49 134.732 250.92 136.602 249.06C138.453 247.19 141.033 246.13 143.672 246.13C146.302 246.13 148.882 247.19 150.742 249.06C152.601 250.92 153.672 253.5 153.672 256.13C153.672 258.76 152.602 261.33 150.742 263.2C148.882 265.06 146.302 266.13 143.672 266.13Z" fill="#FFA318"></path>
  <path d="M289.121 257.62C286.491 257.62 283.911 256.55 282.051 254.689C280.191 252.83 279.121 250.25 279.121 247.62C279.121 244.979 280.19 242.41 282.051 240.54C283.911 238.68 286.491 237.62 289.121 237.62C291.751 237.62 294.331 238.68 296.19 240.54C298.05 242.41 299.121 244.98 299.121 247.62C299.121 250.25 298.051 252.819 296.19 254.689C294.331 256.55 291.751 257.62 289.121 257.62Z" fill="#FFA318"></path>
</svg>
